<svg width="54" height="117" fill="none" xmlns="http://www.w3.org/2000/svg"><path d="M35.709 35.782c0 9.072-4.05 11.988-10.692 11.988H18.05v16.2h5.994c8.1 0 11.664 3.888 11.664 14.418v8.91c0 10.044-3.564 12.798-9.234 12.798s-9.234-3.078-9.234-11.178v-10.53H.393v9.396c0 18.144 9.072 28.512 26.568 28.512 17.496 0 26.568-10.368 26.568-28.512v-8.91c0-11.502-3.564-19.926-12.474-23.814 8.586-3.564 12.474-11.178 12.474-23.328v-2.916C53.529 10.672 44.457.304 26.96.304 9.465.304.393 10.672.393 28.816v6.156H17.24v-7.29c0-8.1 3.564-11.178 9.234-11.178s9.234 2.754 9.234 12.96v6.318z" fill="#2891B2"/></svg>